<svg width="2.84vh" height="2.84vh" viewBox="0 0 24 24" fill="none" xmlns="http://www.w3.org/2000/svg">
<path fill-rule="evenodd" clip-rule="evenodd" d="M21.848 5.86064C21.3287 5.40675 19.516 4 17 4C15.2704 4 13.8732 4.66478 13 5.22781L13 19.2278C13.8732 18.6648 15.2704 18 17 18C18.7625 18 20.1799 18.6904 21.0493 19.2599C21.4219 19.504 22 19.2383 22 18.7929V6.20711C22 6.0745 21.9479 5.9479 21.848 5.86064ZM11 19.2278L11 5.22781C10.1268 4.66478 8.7296 4 7 4C4.48397 4 2.67132 5.40675 2.15196 5.86064C2.0521 5.9479 2 6.0745 2 6.20711V18.7929C2 19.2383 2.57805 19.504 2.95068 19.2599C3.82008 18.6904 5.23745 18 7 18C8.7296 18 10.1268 18.6648 11 19.2278Z" fill="black"/>
</svg>
