<svg width="2.84vh" height="2.84vh" viewBox="0 0 24 24" fill="none" xmlns="http://www.w3.org/2000/svg">
<path fill-rule="evenodd" clip-rule="evenodd" d="M7 3C4.12192 3 2.07829 4.59696 1.49391 5.10766C1.15621 5.40279 1 5.81439 1 6.20711V18.7929C1 19.4903 1.4545 19.9716 1.90345 20.1868C2.34795 20.3998 2.96613 20.4452 3.49864 20.0964C4.27193 19.5898 5.49895 19 7 19C8.90573 19 10.366 19.9519 11.0007 20.4563C11.0608 20.504 11.1236 20.5468 11.1886 20.5846C11.3702 20.8362 11.666 21 12 21C12.334 21 12.6298 20.8362 12.8114 20.5846C12.8764 20.5468 12.9392 20.504 12.9993 20.4563C13.634 19.9519 15.0943 19 17 19C18.501 19 19.7281 19.5898 20.5014 20.0964C21.0339 20.4452 21.6521 20.3998 22.0965 20.1868C22.5455 19.9716 23 19.4903 23 18.7929V6.20711C23 5.81439 22.8438 5.40279 22.5061 5.10766C21.9217 4.59696 19.8781 3 17 3C14.6772 3 12.8999 4.04056 12 4.7031C11.1001 4.04056 9.32277 3 7 3ZM13 18.0638C13.9802 17.5232 15.353 17 17 17C18.6513 17 20.0256 17.5264 21 18.0638V6.45564C20.3809 5.96375 18.9172 5 17 5C15.095 5 13.6351 5.95113 13 6.45567V18.0638ZM11 6.45567C10.3649 5.95113 8.90498 5 7 5C5.08284 5 3.61906 5.96375 3 6.45564V18.0638C3.97444 17.5264 5.34866 17 7 17C8.64704 17 10.0198 17.5232 11 18.0638V6.45567Z" fill="black"/>
</svg>
