<svg width="3.79vh" height="3.79vh" viewBox="0 0 32 32" fill="none" xmlns="http://www.w3.org/2000/svg">
<path d="M2.79271 14.7822C2.72497 14.0031 3.33907 13.3333 4.12103 13.3333H6.66672C7.40312 13.3333 8.00006 13.9303 8.00006 14.6667V27.3333C8.00006 28.0697 7.40312 28.6667 6.66672 28.6667H5.22248C4.53087 28.6667 3.95407 28.1379 3.89416 27.4489L2.79271 14.7822Z" stroke="#9063FF" stroke-width="2" stroke-linecap="round" stroke-linejoin="round"/>
<path d="M12 14.2497C12 13.6925 12.3463 13.1939 12.8502 12.9563C13.9492 12.4383 15.8219 11.3959 16.6667 9.987C17.7554 8.17127 17.9607 4.89063 17.9941 4.13919C17.9988 4.03399 17.9958 3.92867 18.0103 3.82437C18.1907 2.52297 20.7029 4.04328 21.6667 5.65075C22.1897 6.52314 22.2568 7.66933 22.2018 8.5642C22.1429 9.52167 21.8622 10.4466 21.5868 11.3655L21 13.323H28.2379C29.1221 13.323 29.7614 14.1679 29.5211 15.0187L25.9409 27.6957C25.7787 28.2701 25.2545 28.6667 24.6577 28.6667H13.3333C12.5969 28.6667 12 28.0697 12 27.3333V14.2497Z" stroke="#9063FF" stroke-width="2" stroke-linecap="round" stroke-linejoin="round"/>
</svg>
