<svg width="2.84vh" height="2.84vh" viewBox="0 0 25 24" fill="none" xmlns="http://www.w3.org/2000/svg">
<path fill-rule="evenodd" clip-rule="evenodd" d="M16.7929 9.70711C17.1834 10.0976 17.8166 10.0976 18.2071 9.70711C18.5976 9.31658 18.5976 8.68342 18.2071 8.29289L13.2071 3.29289L12.5 2.58578L11.7929 3.29289L6.79289 8.29289C6.40237 8.68342 6.40237 9.31658 6.79289 9.7071C7.18342 10.0976 7.81658 10.0976 8.20711 9.7071L11.5 6.41421L11.5 16C11.5 16.5523 11.9477 17 12.5 17C13.0523 17 13.5 16.5523 13.5 16L13.5 6.41421L16.7929 9.70711ZM5.5 14C5.5 13.4477 5.05228 13 4.5 13C3.94772 13 3.5 13.4477 3.5 14V18C3.5 19.6569 4.84315 21 6.5 21H18.5C20.1569 21 21.5 19.6569 21.5 18V14C21.5 13.4477 21.0523 13 20.5 13C19.9477 13 19.5 13.4477 19.5 14V18C19.5 18.5523 19.0523 19 18.5 19H6.5C5.94772 19 5.5 18.5523 5.5 18V14Z" fill="#232323"/>
</svg>
