<svg width="3.79vh" height="3.79vh" viewBox="0 0 32 32" fill="none" xmlns="http://www.w3.org/2000/svg">
<path d="M2.78692 17.8893C2.72214 18.6666 3.3356 19.3333 4.11565 19.3333H6.66658C7.40298 19.3333 7.99992 18.7364 7.99992 18V4.66667C7.99992 3.93029 7.40298 3.33333 6.66658 3.33333H5.22676C4.53331 3.33333 3.95562 3.86489 3.89803 4.55594L2.78692 17.8893Z" stroke="#9063FF" stroke-width="2" stroke-linecap="round" stroke-linejoin="round"/>
<path d="M12 17.7503C12 18.3075 12.3463 18.8061 12.8502 19.0437C13.9492 19.5617 15.8219 20.6041 16.6667 22.013C17.7554 23.8287 17.9607 27.1093 17.9941 27.8608C17.9988 27.966 17.9958 28.0713 18.0103 28.1756C18.1907 29.477 20.7029 27.9567 21.6667 26.3493C22.1897 25.4769 22.2568 24.3307 22.2018 23.4358C22.1429 22.4783 21.8622 21.5534 21.5868 20.6345L21 18.677H28.2379C29.1221 18.677 29.7614 17.8321 29.5211 16.9813L25.9409 4.30428C25.7787 3.72993 25.2545 3.33333 24.6577 3.33333H13.3333C12.5969 3.33333 12 3.93029 12 4.66667V17.7503Z" stroke="#9063FF" stroke-width="2" stroke-linecap="round" stroke-linejoin="round"/>
</svg>
